<svg width="235" height="47" viewBox="0 0 235 47" fill="none" xmlns="http://www.w3.org/2000/svg">
<g filter="url(#filter0_d)">
<path d="M27.25 28.5V35H0.15V-2.38419e-06H26.6V6.5H8.2V14.1H24.45V20.4H8.2V28.5H27.25ZM60.7949 28.5V35H33.6949V-2.38419e-06H60.1449V6.5H41.7449V14.1H57.9949V20.4H41.7449V28.5H60.7949ZM99.3398 -2.38419e-06V35H92.6898L75.2398 13.75V35H67.2398V-2.38419e-06H73.9398L91.3398 21.25V-2.38419e-06H99.3398ZM144.831 27.5H128.581L125.481 35H117.181L132.781 -2.38419e-06H140.781L156.431 35H147.931L144.831 27.5ZM142.281 21.35L136.731 7.95L131.181 21.35H142.281ZM182.362 35L175.612 25.25H175.212H168.162V35H160.062V-2.38419e-06H175.212C178.312 -2.38419e-06 180.995 0.516665 183.262 1.55C185.562 2.58333 187.329 4.05 188.562 5.95C189.795 7.85 190.412 10.1 190.412 12.7C190.412 15.3 189.779 17.55 188.512 19.45C187.279 21.3167 185.512 22.75 183.212 23.75L191.062 35H182.362ZM182.212 12.7C182.212 10.7333 181.579 9.23333 180.312 8.2C179.045 7.13333 177.195 6.6 174.762 6.6H168.162V18.8H174.762C177.195 18.8 179.045 18.2667 180.312 17.2C181.579 16.1333 182.212 14.6333 182.212 12.7ZM203.591 6.6H192.391V-2.38419e-06H222.891V6.6H211.691V35H203.591V6.6Z" fill="black"/>
</g>
<defs>
<filter id="filter0_d" x="0.149994" y="0" width="234.741" height="47" filterUnits="userSpaceOnUse" color-interpolation-filters="sRGB">
<feFlood flood-opacity="0" result="BackgroundImageFix"/>
<feColorMatrix in="SourceAlpha" type="matrix" values="0 0 0 0 0 0 0 0 0 0 0 0 0 0 0 0 0 0 127 0"/>
<feOffset dx="6" dy="6"/>
<feGaussianBlur stdDeviation="3"/>
<feColorMatrix type="matrix" values="0 0 0 0 0 0 0 0 0 0 0 0 0 0 0 0 0 0 0.25 0"/>
<feBlend mode="normal" in2="BackgroundImageFix" result="effect1_dropShadow"/>
<feBlend mode="normal" in="SourceGraphic" in2="effect1_dropShadow" result="shape"/>
</filter>
</defs>
</svg>
